# xmcd
#
# Track frame offsets: 
#        150
#        23692
#        43905
#        68813
#        87068
#        110443
#        129903
#        148075
#        169465
#        195717
#        212885
#        231516
#
# Disc length: 3435 seconds
#
# Revision: 0
# Processed by: cddbd v1.5.2PL0 Copyright (c) Steve Scherf et al.
# Submitted via: ExactAudioCopy v1.3
#
DISCID=af0d690c
DTITLE=Big Harp George - Uptown Cool
DYEAR=2018
DGENRE=Harp Blues
TTITLE0=Down to the Rite Aid
TTITLE1=Internet Honey
TTITLE2=Alternative Facts
TTITLE3=I Wanna Know
TTITLE4=Nobody's Listening
TTITLE5=In the First Place
TTITLE6=Standing in the Weather
TTITLE7=Bulletproof
TTITLE8=Cold Snap By the Bay
TTITLE9=Just Calm Yourself
TTITLE10=Uptown Cool
TTITLE11=Lord, Make me Chaste
EXTD=
EXTT0=
EXTT1=
EXTT2=
EXTT3=
EXTT4=
EXTT5=
EXTT6=
EXTT7=
EXTT8=
EXTT9=
EXTT10=
EXTT11=
PLAYORDER=
